<?xml version="1.0" encoding="UTF-8"?><svg xmlns="http://www.w3.org/2000/svg" xmlns:xlink="http://www.w3.org/1999/xlink" fill-opacity="1" color-rendering="auto" color-interpolation="auto" text-rendering="auto" stroke="black" stroke-linecap="square" width="50000" stroke-miterlimit="10" shape-rendering="auto" stroke-opacity="1" fill="black" stroke-dasharray="none" font-weight="normal" stroke-width="1" height="38212" font-family="'Dialog'" font-style="normal" stroke-linejoin="miter" font-size="12px" stroke-dashoffset="0" image-rendering="auto">
  <!--Generated by ySVG 2.6-->
  <defs id="genericDefs"/>
  <g>
    <defs id="defs1">
      <clipPath clipPathUnits="userSpaceOnUse" id="clipPath1">
        <path d="M0 0 L50000 0 L50000 38212 L0 38212 L0 0 Z"/>
      </clipPath>
      <clipPath clipPathUnits="userSpaceOnUse" id="clipPath2">
        <path d="M245 85 L877 85 L877 567.9997 L245 567.9997 L245 85 Z"/>
      </clipPath>
      <clipPath clipPathUnits="userSpaceOnUse" id="clipPath3">
        <path d="M-520.3519 99.8955 L94.9553 -44.3994 L205.2312 425.843 L-410.076 570.1379 L-520.3519 99.8955 Z"/>
      </clipPath>
      <clipPath clipPathUnits="userSpaceOnUse" id="clipPath4">
        <path d="M-331.8536 -70.0966 L292.8618 25.5832 L219.7395 503.0157 L-404.9759 407.336 L-331.8536 -70.0966 Z"/>
      </clipPath>
      <clipPath clipPathUnits="userSpaceOnUse" id="clipPath5">
        <path d="M-351.0616 82.3613 L219.7743 -188.8771 L427.0656 247.3786 L-143.7704 518.617 L-351.0616 82.3613 Z"/>
      </clipPath>
      <clipPath clipPathUnits="userSpaceOnUse" id="clipPath6">
        <path d="M-77.0941 -243.3174 L309.3232 256.7882 L-72.8775 552.1038 L-459.2948 51.9982 L-77.0941 -243.3174 Z"/>
      </clipPath>
      <clipPath clipPathUnits="userSpaceOnUse" id="clipPath7">
        <path d="M-44.2221 -185.9799 L548.2921 33.9087 L380.2444 486.7317 L-212.2698 266.8431 L-44.2221 -185.9799 Z"/>
      </clipPath>
      <clipPath clipPathUnits="userSpaceOnUse" id="clipPath8">
        <path d="M-282.9772 -3.4015 L131.7278 -480.3122 L496.202 -163.3781 L81.4971 313.5326 L-282.9772 -3.4015 Z"/>
      </clipPath>
      <clipPath clipPathUnits="userSpaceOnUse" id="clipPath9">
        <path d="M272.3217 -160.0981 L465.1768 441.7581 L5.2142 589.1456 L-187.6409 -12.7106 L272.3217 -160.0981 Z"/>
      </clipPath>
      <clipPath clipPathUnits="userSpaceOnUse" id="clipPath10">
        <path d="M-309.4328 -293.9846 L232.9132 -618.4609 L480.8909 -203.9785 L-61.455 120.4978 L-309.4328 -293.9846 Z"/>
      </clipPath>
      <clipPath clipPathUnits="userSpaceOnUse" id="clipPath11">
        <path d="M431.6317 -75.5978 L485.2362 554.1248 L3.977 595.0915 L-49.6275 -34.6311 L431.6317 -75.5978 Z"/>
      </clipPath>
      <clipPath clipPathUnits="userSpaceOnUse" id="clipPath12">
        <path d="M-348.3396 -10.5109 L236.7095 -249.5538 L419.3956 197.5642 L-165.6535 436.6071 L-348.3396 -10.5109 Z"/>
      </clipPath>
      <clipPath clipPathUnits="userSpaceOnUse" id="clipPath13">
        <path d="M-144.0633 -351.2277 L407.3262 -42.369 L171.2841 379.0248 L-380.1054 70.1662 L-144.0633 -351.2277 Z"/>
      </clipPath>
      <clipPath clipPathUnits="userSpaceOnUse" id="clipPath14">
        <path d="M137.2948 -399.4726 L432.5868 159.2998 L5.5505 384.9738 L-289.7415 -173.7986 L137.2948 -399.4726 Z"/>
      </clipPath>
      <clipPath clipPathUnits="userSpaceOnUse" id="clipPath15">
        <path d="M-133.7649 -347.17 L473.4395 -171.8792 L339.4752 292.1707 L-267.7292 116.8799 L-133.7649 -347.17 Z"/>
      </clipPath>
      <clipPath clipPathUnits="userSpaceOnUse" id="clipPath16">
        <path d="M-362.922 -207.2612 L198.14 -498.1796 L420.4714 -69.3936 L-140.5905 221.5248 L-362.922 -207.2612 Z"/>
      </clipPath>
      <clipPath clipPathUnits="userSpaceOnUse" id="clipPath17">
        <path d="M-389.8835 108.855 L-258.6778 -509.3756 L213.7987 -409.103 L82.5931 209.1276 L-389.8835 108.855 Z"/>
      </clipPath>
      <clipPath clipPathUnits="userSpaceOnUse" id="clipPath18">
        <path d="M-477.1279 135.3511 L-9.0746 -289.3254 L315.4801 68.3797 L-152.5732 493.0561 L-477.1279 135.3511 Z"/>
      </clipPath>
      <clipPath clipPathUnits="userSpaceOnUse" id="clipPath19">
        <path d="M-186.6318 -454.1891 L362.5098 -141.3512 L123.4266 278.3247 L-425.715 -34.5131 L-186.6318 -454.1891 Z"/>
      </clipPath>
      <clipPath clipPathUnits="userSpaceOnUse" id="clipPath20">
        <path d="M411.2318 -397.9167 L411.2318 234.0833 L-71.7679 234.0833 L-71.7679 -397.9167 L411.2318 -397.9167 Z"/>
      </clipPath>
      <clipPath clipPathUnits="userSpaceOnUse" id="clipPath21">
        <path d="M189.2492 -499.5899 L484.103 59.4139 L56.8899 284.753 L-237.9639 -274.2509 L189.2492 -499.5899 Z"/>
      </clipPath>
      <clipPath clipPathUnits="userSpaceOnUse" id="clipPath22">
        <path d="M-595.8749 104.4998 L-98.0872 -284.8989 L199.5069 95.5304 L-298.2808 484.9291 L-595.8749 104.4998 Z"/>
      </clipPath>
      <clipPath clipPathUnits="userSpaceOnUse" id="clipPath23">
        <path d="M-396.995 570.1381 L-359.0497 -60.7218 L123.0787 -31.7225 L85.1333 599.1374 L-396.995 570.1381 Z"/>
      </clipPath>
      <clipPath clipPathUnits="userSpaceOnUse" id="clipPath24">
        <path d="M-213.3802 -588.6177 L307.9487 -231.3501 L34.9105 167.0703 L-486.4184 -190.1973 L-213.3802 -588.6177 Z"/>
      </clipPath>
    </defs>
    <g fill="white" text-rendering="geometricPrecision" shape-rendering="geometricPrecision" transform="scale(79.1139,79.1139) translate(-245,-85)" stroke="white">
      <rect x="245" width="632" height="483" y="85" clip-path="url(#clipPath2)" stroke="none"/>
    </g>
    <g fill="rgb(255,204,0)" text-rendering="geometricPrecision" shape-rendering="geometricPrecision" transform="matrix(79.1139,0,0,79.1139,-19382.9114,-6724.6835)" stroke="rgb(255,204,0)">
      <rect x="617.6166" y="86.3407" clip-path="url(#clipPath2)" width="148.7383" rx="4" ry="4" height="33.4" stroke="none"/>
    </g>
    <g text-rendering="geometricPrecision" stroke-miterlimit="1.45" shape-rendering="geometricPrecision" font-family="'Arial'" transform="matrix(79.1139,0,0,79.1139,-19382.9114,-6724.6835)" stroke-linecap="butt">
      <text x="622.6166" xml:space="preserve" y="100.4977" clip-path="url(#clipPath2)" stroke="none">IPB: Src IP in bad_ip_list?</text>
      <text x="672.9779" xml:space="preserve" y="113.904" clip-path="url(#clipPath2)" stroke="none">Cost: 3</text>
    </g>
    <g fill="rgb(255,153,204)" text-rendering="geometricPrecision" shape-rendering="geometricPrecision" transform="matrix(79.1139,0,0,79.1139,-19382.9114,-6724.6835)" stroke="rgb(255,153,204)">
      <rect x="768.1942" y="134.743" clip-path="url(#clipPath2)" width="105.6797" rx="4" ry="4" height="33.4" stroke="none"/>
    </g>
    <g text-rendering="geometricPrecision" stroke-miterlimit="1.45" shape-rendering="geometricPrecision" font-family="'Arial'" transform="matrix(79.1139,0,0,79.1139,-19382.9114,-6724.6835)" stroke-linecap="butt">
      <text x="772.6942" xml:space="preserve" y="148.9" clip-path="url(#clipPath2)" stroke="none">MALICIOUS (IPB)</text>
      <text x="788.0165" xml:space="preserve" y="162.3063" clip-path="url(#clipPath2)" stroke="none">Path Cost: 3</text>
    </g>
    <g fill="rgb(255,204,0)" text-rendering="geometricPrecision" shape-rendering="geometricPrecision" transform="matrix(79.1139,0,0,79.1139,-19382.9114,-6724.6835)" stroke="rgb(255,204,0)">
      <rect x="445.8447" y="127.7144" clip-path="url(#clipPath2)" width="160.4102" rx="4" ry="4" height="33.4" stroke="none"/>
    </g>
    <g text-rendering="geometricPrecision" stroke-miterlimit="1.45" shape-rendering="geometricPrecision" font-family="'Arial'" transform="matrix(79.1139,0,0,79.1139,-19382.9114,-6724.6835)" stroke-linecap="butt">
      <text x="449.3447" xml:space="preserve" y="141.8715" clip-path="url(#clipPath2)" stroke="none">PC: Port suspicious_port_X?</text>
      <text x="507.042" xml:space="preserve" y="155.2777" clip-path="url(#clipPath2)" stroke="none">Cost: 1</text>
    </g>
    <g fill="rgb(255,153,204)" text-rendering="geometricPrecision" shape-rendering="geometricPrecision" transform="matrix(79.1139,0,0,79.1139,-19382.9114,-6724.6835)" stroke="rgb(255,153,204)">
      <rect x="606.2549" y="198.143" clip-path="url(#clipPath2)" width="136.0312" rx="4" ry="4" height="33.4" stroke="none"/>
    </g>
    <g text-rendering="geometricPrecision" stroke-miterlimit="1.45" shape-rendering="geometricPrecision" font-family="'Arial'" transform="matrix(79.1139,0,0,79.1139,-19382.9114,-6724.6835)" stroke-linecap="butt">
      <text x="609.2549" xml:space="preserve" y="212.3" clip-path="url(#clipPath2)" stroke="none">MALICIOUS (Susp Port)</text>
      <text x="641.2529" xml:space="preserve" y="225.7063" clip-path="url(#clipPath2)" stroke="none">Path Cost: 4</text>
    </g>
    <g fill="rgb(255,204,0)" text-rendering="geometricPrecision" shape-rendering="geometricPrecision" transform="matrix(79.1139,0,0,79.1139,-19382.9114,-6724.6835)" stroke="rgb(255,204,0)">
      <rect x="435.8749" y="191.1144" clip-path="url(#clipPath2)" width="82.375" rx="4" ry="4" height="33.4" stroke="none"/>
    </g>
    <g stroke-linecap="butt" transform="matrix(79.1139,0,0,79.1139,-19382.9114,-6724.6835)" fill="rgb(171,205,239)" text-rendering="geometricPrecision" shape-rendering="geometricPrecision" stroke="rgb(171,205,239)" stroke-miterlimit="1.45">
      <rect x="435.8749" y="191.1144" clip-path="url(#clipPath2)" fill="none" width="82.375" rx="4" ry="4" height="33.4"/>
      <text x="439.3749" y="205.2715" clip-path="url(#clipPath2)" fill="black" font-family="'Arial'" stroke="none" xml:space="preserve">PC: Port 443?</text>
      <text x="458.0546" y="218.6777" clip-path="url(#clipPath2)" fill="black" font-family="'Arial'" stroke="none" xml:space="preserve">Cost: 1</text>
    </g>
    <g fill="rgb(255,204,0)" text-rendering="geometricPrecision" shape-rendering="geometricPrecision" transform="matrix(79.1139,0,0,79.1139,-19382.9114,-6724.6835)" stroke="rgb(255,204,0)">
      <rect x="317.0135" y="261.543" clip-path="url(#clipPath2)" width="100.7188" rx="4" ry="4" height="33.4" stroke="none"/>
    </g>
    <g text-rendering="geometricPrecision" stroke-miterlimit="1.45" shape-rendering="geometricPrecision" font-family="'Arial'" transform="matrix(79.1139,0,0,79.1139,-19382.9114,-6724.6835)" stroke-linecap="butt">
      <text x="321.0135" xml:space="preserve" y="275.7" clip-path="url(#clipPath2)" stroke="none">SNI: SNI benign?</text>
      <text x="348.3651" xml:space="preserve" y="289.1063" clip-path="url(#clipPath2)" stroke="none">Cost: 2</text>
    </g>
    <g fill="lime" text-rendering="geometricPrecision" shape-rendering="geometricPrecision" transform="matrix(79.1139,0,0,79.1139,-19382.9114,-6724.6835)" stroke="lime">
      <rect x="359.2852" y="342.3929" clip-path="url(#clipPath2)" width="104.0098" rx="4" ry="4" height="33.4" stroke="none"/>
    </g>
    <g text-rendering="geometricPrecision" stroke-miterlimit="1.45" shape-rendering="geometricPrecision" font-family="'Arial'" transform="matrix(79.1139,0,0,79.1139,-19382.9114,-6724.6835)" stroke-linecap="butt">
      <text x="362.2852" xml:space="preserve" y="356.5499" clip-path="url(#clipPath2)" stroke="none">BENIGN (SNI OK)</text>
      <text x="378.2725" xml:space="preserve" y="369.9562" clip-path="url(#clipPath2)" stroke="none">Path Cost: 7</text>
    </g>
    <g fill="rgb(255,204,0)" text-rendering="geometricPrecision" shape-rendering="geometricPrecision" transform="matrix(79.1139,0,0,79.1139,-19382.9114,-6724.6835)" stroke="rgb(255,204,0)">
      <rect x="247.2286" y="463.3591" clip-path="url(#clipPath2)" width="110.9512" rx="4" ry="4" height="33.4" stroke="none"/>
    </g>
    <g text-rendering="geometricPrecision" stroke-miterlimit="1.45" shape-rendering="geometricPrecision" font-family="'Arial'" transform="matrix(79.1139,0,0,79.1139,-19382.9114,-6724.6835)" stroke-linecap="butt">
      <text x="250.7286" xml:space="preserve" y="477.5161" clip-path="url(#clipPath2)" stroke="none">SM: 'malware.exe'?</text>
      <text x="280.3595" xml:space="preserve" y="490.9224" clip-path="url(#clipPath2)" stroke="none">Cost: 10</text>
    </g>
    <g fill="rgb(255,153,204)" text-rendering="geometricPrecision" shape-rendering="geometricPrecision" transform="matrix(79.1139,0,0,79.1139,-19382.9114,-6724.6835)" stroke="rgb(255,153,204)">
      <rect x="368.2561" y="532.5929" clip-path="url(#clipPath2)" width="100.3379" rx="4" ry="4" height="33.4" stroke="none"/>
    </g>
    <g text-rendering="geometricPrecision" stroke-miterlimit="1.45" shape-rendering="geometricPrecision" font-family="'Arial'" transform="matrix(79.1139,0,0,79.1139,-19382.9114,-6724.6835)" stroke-linecap="butt">
      <text x="370.7561" xml:space="preserve" y="546.7499" clip-path="url(#clipPath2)" stroke="none">MALICIOUS (SM)</text>
      <text x="382.0705" xml:space="preserve" y="560.1562" clip-path="url(#clipPath2)" stroke="none">Path Cost: 17</text>
    </g>
    <g fill="lime" text-rendering="geometricPrecision" shape-rendering="geometricPrecision" transform="matrix(79.1139,0,0,79.1139,-19382.9114,-6724.6835)" stroke="lime">
      <rect x="246.7257" y="533.5464" clip-path="url(#clipPath2)" width="100.0078" rx="4" ry="4" height="33.4" stroke="none"/>
    </g>
    <g text-rendering="geometricPrecision" stroke-miterlimit="1.45" shape-rendering="geometricPrecision" font-family="'Arial'" transform="matrix(79.1139,0,0,79.1139,-19382.9114,-6724.6835)" stroke-linecap="butt">
      <text x="249.7257" xml:space="preserve" y="547.7034" clip-path="url(#clipPath2)" stroke="none">BENIGN (No SM)</text>
      <text x="260.3751" xml:space="preserve" y="561.1097" clip-path="url(#clipPath2)" stroke="none">Path Cost: 17</text>
    </g>
    <g fill="rgb(255,204,0)" text-rendering="geometricPrecision" shape-rendering="geometricPrecision" transform="matrix(79.1139,0,0,79.1139,-19382.9114,-6724.6835)" stroke="rgb(255,204,0)">
      <rect x="611.5832" y="261.543" clip-path="url(#clipPath2)" width="75.7012" rx="4" ry="4" height="33.4" stroke="none"/>
    </g>
    <g text-rendering="geometricPrecision" stroke-miterlimit="1.45" shape-rendering="geometricPrecision" font-family="'Arial'" transform="matrix(79.1139,0,0,79.1139,-19382.9114,-6724.6835)" stroke-linecap="butt">
      <text x="615.0833" xml:space="preserve" y="275.7" clip-path="url(#clipPath2)" stroke="none">PC: Port 80?</text>
      <text x="630.426" xml:space="preserve" y="289.1063" clip-path="url(#clipPath2)" stroke="none">Cost: 1</text>
    </g>
    <g fill="rgb(255,204,0)" text-rendering="geometricPrecision" shape-rendering="geometricPrecision" transform="matrix(79.1139,0,0,79.1139,-19382.9114,-6724.6835)" stroke="rgb(255,204,0)">
      <rect x="517.544" y="342.3929" clip-path="url(#clipPath2)" width="103.7129" rx="4" ry="4" height="33.4" stroke="none"/>
    </g>
    <g text-rendering="geometricPrecision" stroke-miterlimit="1.45" shape-rendering="geometricPrecision" font-family="'Arial'" transform="matrix(79.1139,0,0,79.1139,-19382.9114,-6724.6835)" stroke-linecap="butt">
      <text x="520.0439" xml:space="preserve" y="356.5499" clip-path="url(#clipPath2)" stroke="none">HHP: URI benign?</text>
      <text x="550.3926" xml:space="preserve" y="369.9562" clip-path="url(#clipPath2)" stroke="none">Cost: 2</text>
    </g>
    <g fill="lime" text-rendering="geometricPrecision" shape-rendering="geometricPrecision" transform="matrix(79.1139,0,0,79.1139,-19382.9114,-6724.6835)" stroke="lime">
      <rect x="480.4091" y="406.3903" clip-path="url(#clipPath2)" width="110.3418" rx="4" ry="4" height="33.4" stroke="none"/>
    </g>
    <g text-rendering="geometricPrecision" stroke-miterlimit="1.45" shape-rendering="geometricPrecision" font-family="'Arial'" transform="matrix(79.1139,0,0,79.1139,-19382.9114,-6724.6835)" stroke-linecap="butt">
      <text x="483.9091" xml:space="preserve" y="420.5473" clip-path="url(#clipPath2)" stroke="none">BENIGN (HHP OK)</text>
      <text x="502.5624" xml:space="preserve" y="433.9536" clip-path="url(#clipPath2)" stroke="none">Path Cost: 8</text>
    </g>
    <g fill="rgb(255,204,0)" text-rendering="geometricPrecision" shape-rendering="geometricPrecision" transform="matrix(79.1139,0,0,79.1139,-19382.9114,-6724.6835)" stroke="rgb(255,204,0)">
      <rect x="358.1798" y="405.7929" clip-path="url(#clipPath2)" width="107.9512" rx="4" ry="4" height="33.4" stroke="none"/>
    </g>
    <g text-rendering="geometricPrecision" stroke-miterlimit="1.45" shape-rendering="geometricPrecision" font-family="'Arial'" transform="matrix(79.1139,0,0,79.1139,-19382.9114,-6724.6835)" stroke-linecap="butt">
      <text x="360.1798" xml:space="preserve" y="419.9499" clip-path="url(#clipPath2)" stroke="none">SM: 'malware.exe'?</text>
      <text x="389.8106" xml:space="preserve" y="433.3562" clip-path="url(#clipPath2)" stroke="none">Cost: 10</text>
    </g>
    <g fill="rgb(255,153,204)" text-rendering="geometricPrecision" shape-rendering="geometricPrecision" transform="matrix(79.1139,0,0,79.1139,-19382.9114,-6724.6835)" stroke="rgb(255,153,204)">
      <rect x="486.411" y="469.7903" clip-path="url(#clipPath2)" width="98.3379" rx="4" ry="4" height="33.4" stroke="none"/>
    </g>
    <g text-rendering="geometricPrecision" stroke-miterlimit="1.45" shape-rendering="geometricPrecision" font-family="'Arial'" transform="matrix(79.1139,0,0,79.1139,-19382.9114,-6724.6835)" stroke-linecap="butt">
      <text x="487.911" xml:space="preserve" y="483.9473" clip-path="url(#clipPath2)" stroke="none">MALICIOUS (SM)</text>
      <text x="499.2255" xml:space="preserve" y="497.3535" clip-path="url(#clipPath2)" stroke="none">Path Cost: 18</text>
    </g>
    <g fill="lime" text-rendering="geometricPrecision" shape-rendering="geometricPrecision" transform="matrix(79.1139,0,0,79.1139,-19382.9114,-6724.6835)" stroke="lime">
      <rect x="376.7335" y="469.7903" clip-path="url(#clipPath2)" width="98.0078" rx="4" ry="4" height="33.4" stroke="none"/>
    </g>
    <g text-rendering="geometricPrecision" stroke-miterlimit="1.45" shape-rendering="geometricPrecision" font-family="'Arial'" transform="matrix(79.1139,0,0,79.1139,-19382.9114,-6724.6835)" stroke-linecap="butt">
      <text x="378.7335" xml:space="preserve" y="483.9473" clip-path="url(#clipPath2)" stroke="none">BENIGN (No SM)</text>
      <text x="389.3829" xml:space="preserve" y="497.3535" clip-path="url(#clipPath2)" stroke="none">Path Cost: 18</text>
    </g>
    <g fill="rgb(255,204,0)" text-rendering="geometricPrecision" shape-rendering="geometricPrecision" transform="matrix(79.1139,0,0,79.1139,-19382.9114,-6724.6835)" stroke="rgb(255,204,0)">
      <rect x="692.6537" y="334.1929" clip-path="url(#clipPath2)" width="73.7012" rx="4" ry="4" height="33.4" stroke="none"/>
    </g>
    <g text-rendering="geometricPrecision" stroke-miterlimit="1.45" shape-rendering="geometricPrecision" font-family="'Arial'" transform="matrix(79.1139,0,0,79.1139,-19382.9114,-6724.6835)" stroke-linecap="butt">
      <text x="695.1537" xml:space="preserve" y="348.3499" clip-path="url(#clipPath2)" stroke="none">PC: Port 53?</text>
      <text x="710.4965" xml:space="preserve" y="361.7562" clip-path="url(#clipPath2)" stroke="none">Cost: 1</text>
    </g>
    <g fill="rgb(255,204,0)" text-rendering="geometricPrecision" shape-rendering="geometricPrecision" transform="matrix(79.1139,0,0,79.1139,-19382.9114,-6724.6835)" stroke="rgb(255,204,0)">
      <rect x="614.7489" y="405.7929" clip-path="url(#clipPath2)" width="137.0293" rx="4" ry="4" height="33.4" stroke="none"/>
    </g>
    <g text-rendering="geometricPrecision" stroke-miterlimit="1.45" shape-rendering="geometricPrecision" font-family="'Arial'" transform="matrix(79.1139,0,0,79.1139,-19382.9114,-6724.6835)" stroke-linecap="butt">
      <text x="617.249" xml:space="preserve" y="419.9499" clip-path="url(#clipPath2)" stroke="none">DQC: Check DNS Query</text>
      <text x="664.2558" xml:space="preserve" y="433.3562" clip-path="url(#clipPath2)" stroke="none">Cost: 2</text>
    </g>
    <g fill="lime" text-rendering="geometricPrecision" shape-rendering="geometricPrecision" transform="matrix(79.1139,0,0,79.1139,-19382.9114,-6724.6835)" stroke="lime">
      <rect x="614.488" y="532.5929" clip-path="url(#clipPath2)" width="87.6699" rx="4" ry="4" height="33.4" stroke="none"/>
    </g>
    <g text-rendering="geometricPrecision" stroke-miterlimit="1.45" shape-rendering="geometricPrecision" font-family="'Arial'" transform="matrix(79.1139,0,0,79.1139,-19382.9114,-6724.6835)" stroke-linecap="butt">
      <text x="616.988" xml:space="preserve" y="546.7499" clip-path="url(#clipPath2)" stroke="none">BENIGN (DNS)</text>
      <text x="625.3054" xml:space="preserve" y="560.1562" clip-path="url(#clipPath2)" stroke="none">Path Cost: 9</text>
    </g>
    <g fill="rgb(255,153,204)" text-rendering="geometricPrecision" shape-rendering="geometricPrecision" transform="matrix(79.1139,0,0,79.1139,-19382.9114,-6724.6835)" stroke="rgb(255,153,204)">
      <rect x="494.8222" y="532.5929" clip-path="url(#clipPath2)" width="107.6738" rx="4" ry="4" height="33.4" stroke="none"/>
    </g>
    <g text-rendering="geometricPrecision" stroke-miterlimit="1.45" shape-rendering="geometricPrecision" font-family="'Arial'" transform="matrix(79.1139,0,0,79.1139,-19382.9114,-6724.6835)" stroke-linecap="butt">
      <text x="497.3222" xml:space="preserve" y="546.7499" clip-path="url(#clipPath2)" stroke="none">MALICIOUS (DNS)</text>
      <text x="515.6415" xml:space="preserve" y="560.1562" clip-path="url(#clipPath2)" stroke="none">Path Cost: 9</text>
    </g>
    <g fill="rgb(255,204,0)" text-rendering="geometricPrecision" shape-rendering="geometricPrecision" transform="matrix(79.1139,0,0,79.1139,-19382.9114,-6724.6835)" stroke="rgb(255,204,0)">
      <rect x="766.5585" y="405.7929" clip-path="url(#clipPath2)" width="108.9512" rx="4" ry="4" height="33.4" stroke="none"/>
    </g>
    <g text-rendering="geometricPrecision" stroke-miterlimit="1.45" shape-rendering="geometricPrecision" font-family="'Arial'" transform="matrix(79.1139,0,0,79.1139,-19382.9114,-6724.6835)" stroke-linecap="butt">
      <text x="769.0585" xml:space="preserve" y="419.9499" clip-path="url(#clipPath2)" stroke="none">SM: 'malware.exe'?</text>
      <text x="798.6893" xml:space="preserve" y="433.3562" clip-path="url(#clipPath2)" stroke="none">Cost: 10</text>
    </g>
    <g fill="rgb(255,153,204)" text-rendering="geometricPrecision" shape-rendering="geometricPrecision" transform="matrix(79.1139,0,0,79.1139,-19382.9114,-6724.6835)" stroke="rgb(255,153,204)">
      <rect x="775.1718" y="477.3929" clip-path="url(#clipPath2)" width="100.3379" rx="4" ry="4" height="33.4" stroke="none"/>
    </g>
    <g text-rendering="geometricPrecision" stroke-miterlimit="1.45" shape-rendering="geometricPrecision" font-family="'Arial'" transform="matrix(79.1139,0,0,79.1139,-19382.9114,-6724.6835)" stroke-linecap="butt">
      <text x="777.6718" xml:space="preserve" y="491.5499" clip-path="url(#clipPath2)" stroke="none">MALICIOUS (SM)</text>
      <text x="788.9862" xml:space="preserve" y="504.9561" clip-path="url(#clipPath2)" stroke="none">Path Cost: 17</text>
    </g>
    <g fill="lime" text-rendering="geometricPrecision" shape-rendering="geometricPrecision" transform="matrix(79.1139,0,0,79.1139,-19382.9114,-6724.6835)" stroke="lime">
      <rect x="666.5507" y="477.3929" clip-path="url(#clipPath2)" width="100.0078" rx="4" ry="4" height="33.4" stroke="none"/>
    </g>
    <g text-rendering="geometricPrecision" stroke-miterlimit="1.45" shape-rendering="geometricPrecision" font-family="'Arial'" transform="matrix(79.1139,0,0,79.1139,-19382.9114,-6724.6835)" stroke-linecap="butt">
      <text x="669.5507" xml:space="preserve" y="491.5499" clip-path="url(#clipPath2)" stroke="none">BENIGN (No SM)</text>
      <text x="680.2001" xml:space="preserve" y="504.9561" clip-path="url(#clipPath2)" stroke="none">Path Cost: 17</text>
      <path fill="none" stroke-miterlimit="10" d="M763.0109 119.6967 L819.4052 132.9217" clip-path="url(#clipPath2)"/>
      <path stroke-miterlimit="10" d="M827.1939 134.7482 L816.6524 127.1405 L818.4316 132.6933 L814.3693 136.8763 Z" clip-path="url(#clipPath2)" stroke="none"/>
    </g>
    <g text-rendering="geometricPrecision" stroke-miterlimit="1.45" shape-rendering="geometricPrecision" font-family="'Arial'" transform="matrix(77.0243,18.0629,-18.0629,77.0243,41884.1546,1704.6689)" stroke-linecap="butt">
      <text x="0" xml:space="preserve" y="10.8633" clip-path="url(#clipPath3)" stroke="none">Yes</text>
    </g>
    <g text-rendering="geometricPrecision" shape-rendering="geometricPrecision" transform="matrix(79.1139,0,0,79.1139,-19382.9114,-6724.6835)" stroke-linecap="butt">
      <path fill="none" d="M617.5971 114.4338 L538.7775 126.5056" clip-path="url(#clipPath2)"/>
      <path d="M530.8697 127.7168 L543.4883 130.8425 L539.7659 126.3543 L541.9744 120.9577 Z" clip-path="url(#clipPath2)" stroke="none"/>
    </g>
    <g text-rendering="geometricPrecision" stroke-miterlimit="1.45" shape-rendering="geometricPrecision" font-family="'Arial'" transform="matrix(78.202,-11.9772,11.9772,78.202,26791.1909,1507.0112)" stroke-linecap="butt">
      <text x="0" xml:space="preserve" y="10.8633" clip-path="url(#clipPath4)" stroke="none">No</text>
    </g>
    <g text-rendering="geometricPrecision" shape-rendering="geometricPrecision" transform="matrix(79.1139,0,0,79.1139,-19382.9114,-6724.6835)" stroke-linecap="butt">
      <path fill="none" d="M561.1871 161.1103 L631.8994 194.7099" clip-path="url(#clipPath2)"/>
      <path d="M639.1252 198.1433 L630.4324 188.4771 L630.9962 194.2808 L626.1406 197.5094 Z" clip-path="url(#clipPath2)" stroke="none"/>
    </g>
    <g text-rendering="geometricPrecision" stroke-miterlimit="1.45" shape-rendering="geometricPrecision" font-family="'Arial'" transform="matrix(71.4574,33.9537,-33.9537,71.4574,27882.4225,6034.5161)" stroke-linecap="butt">
      <text x="0" xml:space="preserve" y="10.8633" clip-path="url(#clipPath5)" stroke="none">Yes</text>
    </g>
    <g text-rendering="geometricPrecision" shape-rendering="geometricPrecision" transform="matrix(79.1139,0,0,79.1139,-19382.9114,-6724.6835)" stroke-linecap="butt">
      <path fill="none" d="M513.1571 161.1003 L494.8724 184.7645" clip-path="url(#clipPath2)"/>
      <path d="M489.9811 191.095 L501.2747 184.6564 L495.4839 183.9732 L493.3616 178.5422 Z" clip-path="url(#clipPath2)" stroke="none"/>
    </g>
    <g text-rendering="geometricPrecision" stroke-miterlimit="1.45" shape-rendering="geometricPrecision" font-family="'Arial'" transform="matrix(48.3718,-62.6033,62.6033,48.3718,18961.6684,6943.3557)" stroke-linecap="butt">
      <text x="0" xml:space="preserve" y="10.8633" clip-path="url(#clipPath6)" stroke="none">No</text>
    </g>
    <g text-rendering="geometricPrecision" shape-rendering="geometricPrecision" transform="matrix(79.1139,0,0,79.1139,-19382.9114,-6724.6835)" stroke-linecap="butt">
      <path fill="none" d="M447.8806 224.5155 L355.6124 258.7573" clip-path="url(#clipPath2)"/>
      <path d="M348.1122 261.5406 L361.1021 262.0532 L356.55 258.4093 L357.6229 252.6779 Z" clip-path="url(#clipPath2)" stroke="none"/>
    </g>
    <g text-rendering="geometricPrecision" stroke-miterlimit="1.45" shape-rendering="geometricPrecision" font-family="'Arial'" transform="matrix(74.1711,-27.5257,27.5257,74.1711,8399.2293,12577.0834)" stroke-linecap="butt">
      <text x="0" xml:space="preserve" y="10.8633" clip-path="url(#clipPath7)" stroke="none">Yes (~80%)</text>
    </g>
    <g text-rendering="geometricPrecision" shape-rendering="geometricPrecision" transform="matrix(79.1139,0,0,79.1139,-19382.9114,-6724.6835)" stroke-linecap="butt">
      <path fill="none" d="M402.6547 294.9654 L438.6299 336.3369" clip-path="url(#clipPath2)"/>
      <path d="M443.8794 342.3737 L439.7782 330.0376 L437.9737 335.5823 L432.2322 336.5994 Z" clip-path="url(#clipPath2)" stroke="none"/>
    </g>
    <g text-rendering="geometricPrecision" stroke-miterlimit="1.45" shape-rendering="geometricPrecision" font-family="'Arial'" transform="matrix(51.9129,59.6998,-59.6998,51.9129,14487.0904,17070.2615)" stroke-linecap="butt">
      <text x="0" xml:space="preserve" y="10.8633" clip-path="url(#clipPath8)" stroke="none">Yes</text>
    </g>
    <g text-rendering="geometricPrecision" shape-rendering="geometricPrecision" transform="matrix(79.1139,0,0,79.1139,-19382.9114,-6724.6835)" stroke-linecap="butt">
      <path fill="none" d="M362.0286 294.9214 L310.4898 455.762" clip-path="url(#clipPath2)"/>
      <path d="M308.0486 463.3804 L316.4719 453.4785 L310.795 454.8097 L306.9489 450.427 Z" clip-path="url(#clipPath2)" stroke="none"/>
    </g>
    <g text-rendering="geometricPrecision" stroke-miterlimit="1.45" shape-rendering="geometricPrecision" font-family="'Arial'" transform="matrix(24.1416,-75.3405,75.3405,24.1416,5487.5824,24381.8948)" stroke-linecap="butt">
      <text x="0" xml:space="preserve" y="10.8633" clip-path="url(#clipPath9)" stroke="none">No/Sus</text>
    </g>
    <g text-rendering="geometricPrecision" shape-rendering="geometricPrecision" transform="matrix(79.1139,0,0,79.1139,-19382.9114,-6724.6835)" stroke-linecap="butt">
      <path fill="none" d="M330.6456 496.7759 L383.6573 528.492" clip-path="url(#clipPath2)"/>
      <path d="M390.5225 532.5992 L382.7918 522.1476 L382.7992 527.9786 L377.6577 530.7291 Z" clip-path="url(#clipPath2)" stroke="none"/>
    </g>
    <g text-rendering="geometricPrecision" stroke-miterlimit="1.45" shape-rendering="geometricPrecision" font-family="'Arial'" transform="matrix(67.891,40.618,-40.618,67.891,9066.6257,32527.4636)" stroke-linecap="butt">
      <text x="0" xml:space="preserve" y="10.8633" clip-path="url(#clipPath10)" stroke="none">Yes</text>
    </g>
    <g text-rendering="geometricPrecision" shape-rendering="geometricPrecision" transform="matrix(79.1139,0,0,79.1139,-19382.9114,-6724.6835)" stroke-linecap="butt">
      <path fill="none" d="M301.2835 496.7491 L298.829 525.5835" clip-path="url(#clipPath2)"/>
      <path d="M298.1505 533.5547 L304.1502 522.022 L298.9138 524.5871 L294.1863 521.1738 Z" clip-path="url(#clipPath2)" stroke="none"/>
    </g>
    <g text-rendering="geometricPrecision" stroke-miterlimit="1.45" shape-rendering="geometricPrecision" font-family="'Arial'" transform="matrix(6.7102,-78.8288,78.8288,6.7102,3062.9443,34532.3044)" stroke-linecap="butt">
      <text x="0" xml:space="preserve" y="10.8633" clip-path="url(#clipPath11)" stroke="none">No</text>
    </g>
    <g text-rendering="geometricPrecision" shape-rendering="geometricPrecision" transform="matrix(79.1139,0,0,79.1139,-19382.9114,-6724.6835)" stroke-linecap="butt">
      <path fill="none" d="M516.4099 223.8913 L604.9724 260.0767" clip-path="url(#clipPath2)"/>
      <path d="M612.3781 263.1025 L603.1607 253.9352 L604.0467 259.6985 L599.3784 263.1923 Z" clip-path="url(#clipPath2)" stroke="none"/>
    </g>
    <g text-rendering="geometricPrecision" stroke-miterlimit="1.45" shape-rendering="geometricPrecision" font-family="'Arial'" transform="matrix(73.2366,29.9235,-29.9235,73.2366,25196.6908,11193.3044)" stroke-linecap="butt">
      <text x="0" xml:space="preserve" y="10.8633" clip-path="url(#clipPath12)" stroke="none">No</text>
    </g>
    <g text-rendering="geometricPrecision" shape-rendering="geometricPrecision" transform="matrix(79.1139,0,0,79.1139,-19382.9114,-6724.6835)" stroke-linecap="butt">
      <path fill="none" d="M619.0028 295.7379 L542.7124 338.4716" clip-path="url(#clipPath2)"/>
      <path d="M535.7328 342.3813 L548.6457 340.8791 L543.5848 337.9829 L543.7587 332.1546 Z" clip-path="url(#clipPath2)" stroke="none"/>
    </g>
    <g text-rendering="geometricPrecision" stroke-miterlimit="1.45" shape-rendering="geometricPrecision" font-family="'Arial'" transform="matrix(69.0231,-38.663,38.663,69.0231,23523.2079,18672.8955)" stroke-linecap="butt">
      <text x="0" xml:space="preserve" y="10.8633" clip-path="url(#clipPath13)" stroke="none">Yes (~10%)</text>
    </g>
    <g text-rendering="geometricPrecision" shape-rendering="geometricPrecision" transform="matrix(79.1139,0,0,79.1139,-19382.9114,-6724.6835)" stroke-linecap="butt">
      <path fill="none" d="M560.5655 375.8109 L548.1384 399.3263" clip-path="url(#clipPath2)"/>
      <path d="M544.4006 406.3994 L554.428 398.1259 L548.6057 398.4422 L545.5867 393.4536 Z" clip-path="url(#clipPath2)" stroke="none"/>
    </g>
    <g text-rendering="geometricPrecision" stroke-miterlimit="1.45" shape-rendering="geometricPrecision" font-family="'Arial'" transform="matrix(36.9647,-69.9473,69.9473,36.9647,22866.9577,24369.7934)" stroke-linecap="butt">
      <text x="0" xml:space="preserve" y="10.8633" clip-path="url(#clipPath14)" stroke="none">Yes</text>
    </g>
    <g text-rendering="geometricPrecision" shape-rendering="geometricPrecision" transform="matrix(79.1139,0,0,79.1139,-19382.9114,-6724.6835)" stroke-linecap="butt">
      <path fill="none" d="M544.962 375.7878 L448.7175 403.5721" clip-path="url(#clipPath2)"/>
      <path d="M441.0314 405.7909 L453.9474 407.2664 L449.6783 403.2947 L451.1738 397.6588 Z" clip-path="url(#clipPath2)" stroke="none"/>
    </g>
    <g text-rendering="geometricPrecision" stroke-miterlimit="1.45" shape-rendering="geometricPrecision" font-family="'Arial'" transform="matrix(76.01,-21.9429,21.9429,76.01,17785.4025,23453.1907)" stroke-linecap="butt">
      <text x="0" xml:space="preserve" y="10.8633" clip-path="url(#clipPath15)" stroke="none">No/Sus</text>
    </g>
    <g text-rendering="geometricPrecision" shape-rendering="geometricPrecision" transform="matrix(79.1139,0,0,79.1139,-19382.9114,-6724.6835)" stroke-linecap="butt">
      <path fill="none" d="M444.3675 439.1953 L496.2552 466.0998" clip-path="url(#clipPath2)"/>
      <path d="M503.3572 469.7823 L495.0057 459.8198 L495.3674 465.6395 L490.4026 468.6973 Z" clip-path="url(#clipPath2)" stroke="none"/>
    </g>
    <g text-rendering="geometricPrecision" stroke-miterlimit="1.45" shape-rendering="geometricPrecision" font-family="'Arial'" transform="matrix(70.2339,36.4172,-36.4172,70.2339,17941.5351,27773.3748)" stroke-linecap="butt">
      <text x="0" xml:space="preserve" y="10.8633" clip-path="url(#clipPath16)" stroke="none">Yes</text>
    </g>
    <g text-rendering="geometricPrecision" shape-rendering="geometricPrecision" transform="matrix(79.1139,0,0,79.1139,-19382.9114,-6724.6835)" stroke-linecap="butt">
      <path fill="none" d="M415.7034 439.2109 L420.5392 461.9968" clip-path="url(#clipPath2)"/>
      <path d="M422.2 469.8225 L424.5998 457.0459 L420.3316 461.0186 L414.8177 459.1219 Z" clip-path="url(#clipPath2)" stroke="none"/>
    </g>
    <g text-rendering="geometricPrecision" stroke-miterlimit="1.45" shape-rendering="geometricPrecision" font-family="'Arial'" transform="matrix(16.4244,77.3903,-77.3903,16.4244,14827.9013,28385.3134)" stroke-linecap="butt">
      <text x="0" xml:space="preserve" y="10.8633" clip-path="url(#clipPath17)" stroke="none">No</text>
    </g>
    <g text-rendering="geometricPrecision" shape-rendering="geometricPrecision" transform="matrix(79.1139,0,0,79.1139,-19382.9114,-6724.6835)" stroke-linecap="butt">
      <path fill="none" d="M667.8289 294.9333 L705.1793 328.8223" clip-path="url(#clipPath2)"/>
      <path d="M711.1041 334.1979 L705.5767 322.4315 L704.4387 328.1504 L698.8572 329.8374 Z" clip-path="url(#clipPath2)" stroke="none"/>
    </g>
    <g text-rendering="geometricPrecision" stroke-miterlimit="1.45" shape-rendering="geometricPrecision" font-family="'Arial'" transform="matrix(58.591,53.1611,-53.1611,58.591,35150.831,17434.2892)" stroke-linecap="butt">
      <text x="0" xml:space="preserve" y="10.8633" clip-path="url(#clipPath18)" stroke="none">No</text>
    </g>
    <g text-rendering="geometricPrecision" shape-rendering="geometricPrecision" transform="matrix(79.1139,0,0,79.1139,-19382.9114,-6724.6835)" stroke-linecap="butt">
      <path fill="none" d="M697.6115 367.6051 L637.5554 401.8182" clip-path="url(#clipPath2)"/>
      <path d="M630.6042 405.7782 L643.5059 404.1827 L638.4243 401.3232 L638.5559 395.4937 Z" clip-path="url(#clipPath2)" stroke="none"/>
    </g>
    <g text-rendering="geometricPrecision" stroke-miterlimit="1.45" shape-rendering="geometricPrecision" font-family="'Arial'" transform="matrix(68.7417,-39.1611,39.1611,68.7417,30615.9363,23913.0118)" stroke-linecap="butt">
      <text x="0" xml:space="preserve" y="10.8633" clip-path="url(#clipPath19)" stroke="none">Yes (~5%)</text>
    </g>
    <g text-rendering="geometricPrecision" shape-rendering="geometricPrecision" transform="matrix(79.1139,0,0,79.1139,-19382.9114,-6724.6835)" stroke-linecap="butt">
      <path fill="none" d="M658.3229 439.2174 L658.3229 524.6042" clip-path="url(#clipPath2)"/>
      <path d="M658.3229 532.6042 L663.3229 520.6042 L658.3229 523.6042 L653.3229 520.6042 Z" clip-path="url(#clipPath2)" stroke="none"/>
    </g>
    <g text-rendering="geometricPrecision" stroke-miterlimit="1.45" shape-rendering="geometricPrecision" font-family="'Arial'" transform="matrix(0,-79.1139,79.1139,0,31480.7489,32534.1577)" stroke-linecap="butt">
      <text x="0" xml:space="preserve" y="10.8633" clip-path="url(#clipPath20)" stroke="none">Yes</text>
    </g>
    <g text-rendering="geometricPrecision" shape-rendering="geometricPrecision" transform="matrix(79.1139,0,0,79.1139,-19382.9114,-6724.6835)" stroke-linecap="butt">
      <path fill="none" d="M640.417 439.2026 L594.9099 525.4781" clip-path="url(#clipPath2)"/>
      <path d="M591.1775 532.5541 L601.1985 524.2729 L595.3764 524.5937 L592.3535 519.6074 Z" clip-path="url(#clipPath2)" stroke="none"/>
    </g>
    <g text-rendering="geometricPrecision" stroke-miterlimit="1.45" shape-rendering="geometricPrecision" font-family="'Arial'" transform="matrix(36.9099,-69.9762,69.9762,36.9099,27974.2604,31682.746)" stroke-linecap="butt">
      <text x="0" xml:space="preserve" y="10.8633" clip-path="url(#clipPath21)" stroke="none">No</text>
    </g>
    <g text-rendering="geometricPrecision" shape-rendering="geometricPrecision" transform="matrix(79.1139,0,0,79.1139,-19382.9114,-6724.6835)" stroke-linecap="butt">
      <path fill="none" d="M750.8448 367.5868 L793.3815 400.8614" clip-path="url(#clipPath2)"/>
      <path d="M799.6826 405.7905 L793.3116 394.4586 L792.5938 400.2452 L787.1502 402.335 Z" clip-path="url(#clipPath2)" stroke="none"/>
    </g>
    <g text-rendering="geometricPrecision" stroke-miterlimit="1.45" shape-rendering="geometricPrecision" font-family="'Arial'" transform="matrix(62.3132,48.745,-48.745,62.3132,42224.7169,22534.2259)" stroke-linecap="butt">
      <text x="0" xml:space="preserve" y="10.8633" clip-path="url(#clipPath22)" stroke="none">No</text>
    </g>
    <g text-rendering="geometricPrecision" shape-rendering="geometricPrecision" transform="matrix(79.1139,0,0,79.1139,-19382.9114,-6724.6835)" stroke-linecap="butt">
      <path fill="none" d="M822.0372 439.1693 L823.8555 469.3996" clip-path="url(#clipPath2)"/>
      <path d="M824.3358 477.3851 L828.6063 465.1066 L823.7954 468.4014 L818.6243 465.707 Z" clip-path="url(#clipPath2)" stroke="none"/>
    </g>
    <g text-rendering="geometricPrecision" stroke-miterlimit="1.45" shape-rendering="geometricPrecision" font-family="'Arial'" transform="matrix(4.75,78.9712,-78.9712,4.75,46910.215,28643.0113)" stroke-linecap="butt">
      <text x="0" xml:space="preserve" y="10.8633" clip-path="url(#clipPath23)" stroke="none">Yes</text>
    </g>
    <g text-rendering="geometricPrecision" shape-rendering="geometricPrecision" transform="matrix(79.1139,0,0,79.1139,-19382.9114,-6724.6835)" stroke-linecap="butt">
      <path fill="none" d="M796.6743 439.1867 L747.526 472.8681" clip-path="url(#clipPath2)"/>
      <path d="M740.9269 477.3905 L753.6521 474.7313 L748.3509 472.3028 L747.9991 466.4825 Z" clip-path="url(#clipPath2)" stroke="none"/>
    </g>
    <g text-rendering="geometricPrecision" stroke-miterlimit="1.45" shape-rendering="geometricPrecision" font-family="'Arial'" transform="matrix(65.2601,-44.7229,44.7229,65.2601,40249.8745,28870.2714)" stroke-linecap="butt">
      <text x="0" xml:space="preserve" y="10.8633" clip-path="url(#clipPath24)" stroke="none">No</text>
    </g>
  </g>
</svg>
